<svg width="63" height="63" viewBox="0 0 63 63" fill="none" xmlns="http://www.w3.org/2000/svg">
<path d="M49 24H31V39.5H14" stroke="white" stroke-width="6" stroke-linecap="round"/>
<path fill-rule="evenodd" clip-rule="evenodd" d="M31.5 0C38.8231 0 45.5625 2.49892 50.912 6.69054L46.2244 9.46392C42.0131 6.64437 36.9486 5 31.5 5C16.8645 5 5 16.8645 5 31.5C5 32.2735 5.03314 33.0392 5.09807 33.7958L0.406148 36.5717C0.138904 34.9206 0 33.2265 0 31.5C0 14.103 14.103 0 31.5 0ZM9.8162 46.7375C8.52833 44.9081 7.4661 42.9085 6.66996 40.779L2.30871 43.3593C3.16249 45.4587 4.23617 47.4453 5.50116 49.2904L9.8162 46.7375ZM14.5352 51.8588C19.1315 55.693 25.0463 58 31.5 58C46.1355 58 58 46.1355 58 31.5C58 29.7661 57.8335 28.071 57.5155 26.43L62.0403 23.753C62.667 26.2314 63 28.8268 63 31.5C63 48.897 48.897 63 31.5 63C23.1951 63 15.6409 59.7861 10.0132 54.5342L14.5352 51.8588ZM59.6131 17.2758L55.298 19.8287C54.2985 17.7946 53.0459 15.9072 51.5812 14.2079L55.942 11.6279C57.3571 13.3663 58.5905 15.2586 59.6131 17.2758Z" fill="white"/>
</svg>
